<svg id="Capa_1" data-name="Capa 1" xmlns="http://www.w3.org/2000/svg" viewBox="0 0 246 246"><defs><style>.cls-1{fill:#fff;}</style></defs><title>Plan de travail 1</title><path class="cls-1" d="M123,0A123,123,0,1,0,246,123,123,123,0,0,0,123,0Zm65.74,182.91a7.43,7.43,0,0,1-7.31,7.31H137.61V146.39H108.39v43.82H64.57a7.41,7.41,0,0,1-7.31-7.3V128.13a1.43,1.43,0,0,1,.06-.34,1.57,1.57,0,0,0,.06-.35L123,73.34l65.63,54.1a1.7,1.7,0,0,1,.11.69Zm18.37-54.21a3.87,3.87,0,0,1-2.39,1.25h-.34a3.53,3.53,0,0,1-2.4-.79L123,63.3,44,129.16a4.26,4.26,0,0,1-2.74.8,3.94,3.94,0,0,1-2.39-1.26l-7.08-8.45a3.71,3.71,0,0,1-.8-2.68,3.32,3.32,0,0,1,1.26-2.45l82.06-68.37a14.19,14.19,0,0,1,17.35,0L159.52,70V47.78a3.52,3.52,0,0,1,3.65-3.65h21.92a3.52,3.52,0,0,1,3.65,3.65V94.35l25,20.77a3.32,3.32,0,0,1,1.26,2.45,3.67,3.67,0,0,1-.8,2.68Z"/></svg>